<?xml version="1.0" encoding="UTF-8"?><svg id="Calque_1" xmlns="http://www.w3.org/2000/svg" viewBox="0 0 367.6 314.78"><defs><style>.cls-1{fill:#1d1d1b;}</style></defs><path class="cls-1" d="M363.94,301.62c-12.36,6.12-41.27,13.17-78.03,13.17-105.71,0-160.2-66.06-160.2-153.08C125.7,57.61,200.29,0,292.46,0c35.89,0,63.16,7,75.15,13.54l-14.08,54.57c-13.73-6-33.33-11.46-57.99-11.46-54.46,0-97.14,33.2-97.14,101.04,0,61.21,36.08,99.65,97.54,99.65,21.16,0,44.02-4.16,57.71-9.87l10.29,54.14Z"/><path class="cls-1" d="M0,74.27c15.83-2.57,36.45-4.09,58-4.09,36.1,0,59.68,6.66,77.91,20.42,19.77,14.75,32.17,37.96,32.17,71.59,0,36.46-13.19,61.67-31.47,77.08-20.01,16.68-50.67,24.64-87.75,24.64-22.36,0-38.29-1.34-48.87-2.81V74.27ZM42.96,229.54c3.76,.7,9.76,.74,15,.74,38.97,.33,64.58-21.19,64.58-66.68,.09-39.53-23.06-60.32-60.04-60.32-9.41,0-15.73,.8-19.54,1.64v124.61Z"/></svg>