<?xml version="1.0" encoding="UTF-8"?><svg id="Calque_1" xmlns="http://www.w3.org/2000/svg" viewBox="0 0 573.72 255.33"><defs><style>.cls-1{fill:#fff;}.cls-2{fill:#1d1d1b;}</style></defs><g><path class="cls-2" d="M295.02,244.66c-10.02,4.96-33.45,10.67-63.26,10.67-85.69,0-129.86-53.55-129.86-124.09C101.9,46.86,162.37,.15,237.08,.15c29.09,0,51.2,5.67,60.92,10.98l-11.41,44.24c-11.13-4.87-27.02-9.29-47.01-9.29-44.15,0-78.75,26.91-78.75,81.91,0,49.62,29.25,80.78,79.07,80.78,17.15,0,35.68-3.37,46.78-8l8.35,43.89Z"/><path class="cls-2" d="M0,60.36c12.83-2.08,29.55-3.32,47.02-3.32,29.26,0,48.38,5.4,63.16,16.55,16.02,11.96,26.08,30.77,26.08,58.04,0,29.56-10.69,49.99-25.51,62.48-16.22,13.52-41.07,19.97-71.14,19.97-18.13,0-31.04-1.09-39.61-2.28V60.36Zm34.83,125.87c3.04,.57,7.91,.6,12.16,.6,31.59,.27,52.35-17.18,52.35-54.05,.07-32.05-18.69-48.9-48.67-48.9-7.63,0-12.75,.65-15.84,1.33v101.01Z"/></g><g><path class="cls-2" d="M287.04,200.62c11.1,4.63,29.63,8,46.78,8,49.82,0,79.07-31.16,79.07-80.78,0-55-34.6-81.91-78.75-81.91-19.99,0-35.88,4.43-47.01,9.29l-11.41-44.24C285.44,5.67,307.55,0,336.64,0c74.71,0,135.18,46.7,135.18,131.08,0,70.54-44.17,124.09-129.86,124.09-29.8,0-53.23-5.72-63.26-10.67l8.35-43.89Z"/><path class="cls-2" d="M573.72,211.66c-8.57,1.19-21.49,2.28-39.61,2.28-30.06,0-54.92-6.45-71.14-19.97-14.82-12.49-25.51-32.93-25.51-62.48,0-27.27,10.06-46.08,26.08-58.04,14.78-11.16,33.89-16.55,63.16-16.55,17.48,0,34.19,1.24,47.02,3.32V211.66Zm-34.83-126.6c-3.08-.68-8.21-1.33-15.84-1.33-29.98,0-48.75,16.85-48.67,48.9,0,36.88,20.76,54.32,52.35,54.05,4.25,0,9.12-.04,12.16-.6V85.06Z"/></g><g><circle class="cls-2" cx="345" cy="127.59" r="33.04"/><circle class="cls-1" cx="358.12" cy="108.1" r="13.12"/></g><g><circle class="cls-2" cx="232.98" cy="127.59" r="33.04"/><circle class="cls-1" cx="246.1" cy="108.1" r="13.12"/></g></svg>