<?xml version="1.0" standalone="no"?>
<!DOCTYPE svg PUBLIC "-//W3C//DTD SVG 20010904//EN"
 "http://www.w3.org/TR/2001/REC-SVG-20010904/DTD/svg10.dtd">
<svg version="1.0" xmlns="http://www.w3.org/2000/svg"
 width="202.000000pt" height="202.000000pt" viewBox="0 0 202.000000 202.000000"
 preserveAspectRatio="xMidYMid meet">

<g transform="translate(0.000000,202.000000) scale(0.100000,-0.100000)"
fill="#000000" stroke="none">
<path d="M975 1745 c-148 -32 -275 -106 -387 -224 -87 -92 -130 -161 -171
-278 -30 -84 -32 -95 -32 -238 0 -143 2 -154 32 -238 44 -125 86 -190 188
-292 69 -70 109 -100 170 -132 101 -52 193 -80 290 -89 l75 -7 0 67 0 66 -38
0 c-60 0 -187 36 -255 72 -34 18 -93 62 -131 98 -138 130 -199 267 -199 450
-1 124 19 206 70 300 105 193 262 295 516 335 l37 6 0 59 0 60 -52 -1 c-29 0
-80 -6 -113 -14z"/>
<path d="M1087 1543 c-4 -3 -7 -246 -7 -540 l0 -533 38 0 c158 0 357 129 440
286 138 264 32 599 -233 732 -69 35 -223 70 -238 55z"/>
</g>
</svg>
