<?xml version="1.0" standalone="no"?>
<!DOCTYPE svg PUBLIC "-//W3C//DTD SVG 20010904//EN"
 "http://www.w3.org/TR/2001/REC-SVG-20010904/DTD/svg10.dtd">
<svg version="1.0" xmlns="http://www.w3.org/2000/svg"
 width="512.000000pt" height="512.000000pt" viewBox="0 0 512.000000 512.000000"
 preserveAspectRatio="xMidYMid meet">

<g transform="translate(0.000000,512.000000) scale(0.100000,-0.100000)"
fill="#000000" stroke="none">
<path d="M2245 4835 c-244 -44 -472 -168 -643 -349 -403 -426 -429 -1083 -61
-1540 480 -597 1398 -577 1856 41 170 229 253 527 223 803 -30 284 -142 520
-340 720 -166 168 -389 285 -618 325 -102 18 -320 18 -417 0z"/>
<path d="M3600 2499 c-162 -19 -362 -96 -501 -190 -81 -55 -198 -166 -260
-248 -65 -86 -153 -264 -183 -373 -69 -241 -51 -511 48 -740 140 -324 408
-552 763 -650 67 -18 105 -22 263 -22 170 0 193 2 285 27 117 32 258 97 359
167 87 60 211 183 273 271 66 93 140 253 170 366 34 130 42 336 19 470 -79
454 -437 822 -883 907 -106 20 -261 27 -353 15z m229 -445 c132 -66 157 -229
51 -334 -105 -106 -268 -81 -334 51 -44 90 -31 175 39 245 69 69 154 82 244
38z m-29 -526 c25 -13 55 -38 67 -57 23 -33 23 -39 23 -348 0 -258 -3 -319
-15 -343 -32 -62 -115 -99 -183 -81 -46 13 -99 65 -112 112 -13 44 -13 573 0
619 17 62 88 116 155 119 12 1 41 -9 65 -21z"/>
<path d="M2090 2309 c-414 -36 -807 -139 -1125 -294 -165 -81 -296 -168 -403
-269 -137 -130 -214 -244 -263 -391 -23 -67 -24 -83 -24 -340 l0 -270 27 -57
c34 -73 98 -137 174 -174 l59 -29 1109 -3 1109 -2 -27 32 c-229 282 -338 594
-323 928 13 302 120 578 310 802 l55 66 -36 6 c-53 8 -529 5 -642 -5z"/>
</g>
</svg>
