<svg xmlns="http://www.w3.org/2000/svg" xmlns:xlink="http://www.w3.org/1999/xlink" width="1em" height="1em" preserveAspectRatio="xMidYMid meet" viewBox="0 0 24 24" style="-ms-transform: rotate(360deg); -webkit-transform: rotate(360deg); transform: rotate(360deg);"><g fill="none"><path d="M0 0h24v24H0z"/><path fill="currentColor" d="M16 14a5 5 0 0 1 4.995 4.783L21 19v1a2 2 0 0 1-1.85 1.995L19 22H5a2 2 0 0 1-1.995-1.85L3 20v-1a5 5 0 0 1 4.783-4.995L8 14h8ZM12 2a5 5 0 1 1 0 10a5 5 0 0 1 0-10Z"/></g></svg>